ffmpeg started on 2016-11-26 at 16:43:01
Report written to "Output/NVENCh264/results/ffmpeg/old_town_cross_2160p50ll7000k.log"
Command line:
Tools/ffmpeg/ffmpeg -benchmark -y -i Input/y4m/old_town_cross_2160p50.y4m -c:v h264_nvenc -preset ll -b:v 7000k -an Output/NVENCh264/encoded/old_town_cross_2160p50ll7000k.mkv
ffmpeg version N-82227-gdb23fde Copyright (c) 2000-2016 the FFmpeg developers
  built with gcc 5.4.0 (Ubuntu 5.4.0-6ubuntu1~16.04.2) 20160609
  configuration: --prefix=/home/jaroslav/ffmpeg_build --pkg-config-flags=--static --extra-cflags=-I/home/jaroslav/ffmpeg_build/include --extra-ldflags=-L/home/jaroslav/ffmpeg_build/lib --bindir=/home/jaroslav/bin --enable-gpl --enable-libass --enable-libfdk-aac --enable-libfreetype --enable-libmp3lame --enable-libopus --enable-libtheora --enable-libvorbis --enable-libvpx --enable-libx264 --enable-libx265 --enable-nvenc --enable-libmfx --enable-libxvid --enable-libgsm --enable-libopencore-amrnb --enable-version3 --enable-nonfree
  libavutil      55. 35.100 / 55. 35.100
  libavcodec     57. 66.101 / 57. 66.101
  libavformat    57. 57.100 / 57. 57.100
  libavdevice    57.  2.100 / 57.  2.100
  libavfilter     6. 66.100 /  6. 66.100
  libswscale      4.  3.100 /  4.  3.100
  libswresample   2.  4.100 /  2.  4.100
  libpostproc    54.  2.100 / 54.  2.100
Input #0, yuv4mpegpipe, from 'Input/y4m/old_town_cross_2160p50.y4m':
  Duration: 00:00:10.00, start: 0.000000, bitrate: 4976642 kb/s
    Stream #0:0: Video: rawvideo (I420 / 0x30323449), yuv420p(progressive), 3840x2160, SAR 1:1 DAR 16:9, 50 fps, 50 tbr, 50 tbn, 50 tbc
[h264_nvenc @ 0x2874120] The variable bitrate rate-control requires the 'qmin' and/or 'qmax' option set.
Output #0, matroska, to 'Output/NVENCh264/encoded/old_town_cross_2160p50ll7000k.mkv':
  Metadata:
    encoder         : Lavf57.57.100
    Stream #0:0: Video: h264 (h264_nvenc) (Main) (H264 / 0x34363248), yuv420p, 3840x2160 [SAR 1:1 DAR 16:9], q=-1--1, 7000 kb/s, 50 fps, 1k tbn, 50 tbc
    Metadata:
      encoder         : Lavc57.66.101 h264_nvenc
    Side data:
      cpb: bitrate max/min/avg: 0/0/7000000 buffer size: 14000000 vbv_delay: -1
Stream mapping:
  Stream #0:0 -> #0:0 (rawvideo (native) -> h264 (h264_nvenc))
Press [q] to stop, [?] for help
frame=   19 fps=0.0 q=0.0 size=       0kB time=00:00:00.00 bitrate=N/A speed=   0x    frame=   37 fps= 36 q=37.0 size=       1kB time=00:00:00.12 bitrate=  49.4kbits/s speed=0.119x    frame=   55 fps= 36 q=34.0 size=       1kB time=00:00:00.48 bitrate=  12.4kbits/s speed=0.314x    frame=   64 fps= 31 q=36.0 size=       1kB time=00:00:00.66 bitrate=   9.0kbits/s speed=0.32x    frame=   82 fps= 32 q=34.0 size=       1kB time=00:00:01.02 bitrate=   5.9kbits/s speed=0.396x    frame=  100 fps= 32 q=34.0 size=       1kB time=00:00:01.38 bitrate=   4.3kbits/s speed=0.445x    frame=  118 fps= 33 q=34.0 size=       1kB time=00:00:01.74 bitrate=   3.4kbits/s speed=0.481x    frame=  136 fps= 33 q=33.0 size=       1kB time=00:00:02.10 bitrate=   2.8kbits/s speed=0.509x    frame=  154 fps= 33 q=34.0 size=       1kB time=00:00:02.46 bitrate=   2.4kbits/s speed=0.53x    frame=  172 fps= 33 q=33.0 size=       1kB time=00:00:02.82 bitrate=   2.1kbits/s speed=0.547x    frame=  190 fps= 34 q=35.0 size=       1kB time=00:00:03.18 bitrate=   1.9kbits/s speed=0.561x    frame=  208 fps= 34 q=33.0 size=       1kB time=00:00:03.54 bitrate=   1.7kbits/s speed=0.573x    frame=  226 fps= 34 q=33.0 size=       1kB time=00:00:03.90 bitrate=   1.5kbits/s speed=0.583x    frame=  244 fps= 34 q=30.0 size=       1kB time=00:00:04.26 bitrate=   1.4kbits/s speed=0.592x    frame=  262 fps= 34 q=34.0 size=       1kB time=00:00:04.62 bitrate=   1.3kbits/s speed=0.599x    frame=  280 fps= 34 q=33.0 size=       1kB time=00:00:04.98 bitrate=   1.2kbits/s speed=0.605x    frame=  298 fps= 34 q=36.0 size=    4140kB time=00:00:05.34 bitrate=6350.2kbits/s speed=0.61x    frame=  316 fps= 34 q=35.0 size=    4140kB time=00:00:05.70 bitrate=5949.2kbits/s speed=0.615x    frame=  334 fps= 34 q=36.0 size=    4140kB time=00:00:06.06 bitrate=5595.8kbits/s speed=0.62x    frame=  352 fps= 34 q=35.0 size=    4140kB time=00:00:06.42 bitrate=5282.1kbits/s speed=0.624x    frame=  370 fps= 34 q=35.0 size=    4140kB time=00:00:06.78 bitrate=5001.7kbits/s speed=0.628x    frame=  388 fps= 34 q=33.0 size=    4140kB time=00:00:07.14 bitrate=4749.5kbits/s speed=0.631x    frame=  394 fps= 33 q=34.0 size=    4140kB time=00:00:07.26 bitrate=4671.0kbits/s speed=0.614x    frame=  406 fps= 32 q=34.0 size=    4140kB time=00:00:07.50 bitrate=4521.6kbits/s speed=0.599x    frame=  423 fps= 32 q=34.0 size=    4140kB time=00:00:07.84 bitrate=4325.5kbits/s speed=0.588x    frame=  441 fps= 32 q=33.0 size=    4140kB time=00:00:08.20 bitrate=4135.6kbits/s speed=0.592x    frame=  455 fps= 31 q=35.0 size=    4140kB time=00:00:08.48 bitrate=3999.1kbits/s speed=0.582x    frame=  459 fps= 30 q=33.0 size=    4140kB time=00:00:08.56 bitrate=3961.7kbits/s speed=0.557x    frame=  467 fps= 29 q=34.0 size=    4140kB time=00:00:08.72 bitrate=3889.1kbits/s speed=0.549x    frame=  482 fps= 29 q=36.0 size=    4140kB time=00:00:09.02 bitrate=3759.7kbits/s speed=0.54x    frame=  488 fps= 28 q=35.0 size=    4140kB time=00:00:09.14 bitrate=3710.4kbits/s speed=0.53x    frame=  500 fps= 28 q=35.0 Lsize=    8394kB time=00:00:09.98 bitrate=6889.1kbits/s speed=0.566x    
video:8389kB audio:0kB subtitle:0kB other streams:0kB global headers:0kB muxing overhead: 0.052546%
bench: utime=1.180s
bench: maxrss=1408960kB
